<?xml version="1.0" encoding="UTF-8"?>
<svg id="Ebene_1" data-name="Ebene 1" xmlns="http://www.w3.org/2000/svg" viewBox="0 0 800 800">
  <g id="Mountain_1" data-name="Mountain 1">
    <path d="M796.07,736.88L502.27,67.18c-24.65-56.67-90.52-82.61-147.13-57.94-25.76,11.23-46.35,31.75-57.68,57.49L4.1,736.43c-6.37,13.92-5.18,30.13,3.13,42.98,8.12,12.91,22.33,20.69,37.56,20.59h710.58c24.7-.05,44.68-20.14,44.63-44.86-.01-6.3-1.35-12.52-3.93-18.26h0ZM338.59,85.09c14.81-33.99,54.34-49.54,88.3-34.72,15.52,6.78,27.91,19.18,34.68,34.72l108.67,247.56-64.84,64.91c-8.7,8.78-22.85,8.83-31.62.13-.04-.04-.09-.09-.13-.13l-91.23-90.87c-12.57-12.6-29.62-19.68-47.4-19.7h-84.97l88.54-201.89ZM44.79,754.79l185.58-423.04h104.64c6.06-.08,11.89,2.35,16.1,6.71l90.78,90.87c12.59,12.68,29.68,19.84,47.54,19.92,17.79.03,34.86-7.06,47.4-19.7l52.77-52.38,165.91,378.27-710.72-.67Z"/>
  </g>
</svg>